# xmcd CD database file
#
# Track frame offsets:
#	150
#	15062
#	30422
#	48915
#	65535
#	80807
#	98690
#	116785
#	133660
#	147540
#	163762
#	179782
#	193587
#	206635
#	227410
#
# Disc length: 3229 seconds
#
# Revision: 1
# Processed by: cddbd v1.4PL0 Copyright (c) Steve Scherf et al.
# Submitted via: CDex 1.40Release
#
DISCID=ce0c9b0f
DTITLE=Drew's Famous - 30 Greatest Country Songs [CD2 of 2)
DYEAR=2001
DGENRE=Country
TTITLE0=Down At The Twist And Shout
TTITLE1=Friends In Low Places
TTITLE2=Breathe
TTITLE3=Wide Open Spaces
TTITLE4=Achy Breaky Heart
TTITLE5=I Hope You Dance
TTITLE6=Amazed
TTITLE7=We Danced
TTITLE8=Guitars, Cadillacs
TTITLE9=You're Still The One
TTITLE10=My Next Thirty Years
TTITLE11=This Kiss
TTITLE12=Don't Rock The Jukebox
TTITLE13=How Do I Live
TTITLE14=Boot Scootin' Boogie
EXTD=YEAR: 2001 ID3G: 2
EXTT0=
EXTT1=
EXTT2=
EXTT3=
EXTT4=
EXTT5=
EXTT6=
EXTT7=
EXTT8=
EXTT9=
EXTT10=
EXTT11=
EXTT12=
EXTT13=
EXTT14=
PLAYORDER=
